<svg xmlns="http://www.w3.org/2000/svg" xmlns:xlink="http://www.w3.org/1999/xlink" version="1.1" width="25" height="auto" margin-right='20px' viewBox="0 0 48 60" style="enable-background:new 0 0 48 48;" xml:space="preserve"><style>margin-right: 5px</style><g><path d="M33.9,23.1c0,0.1,0,0.2,0,0.3c0,0.1,0,0.1,0,0.2c0,0,0,0,0,0c0,0.1,0,0.1,0,0.2c0,0.1,0,0.1,0,0.2c0,0.1,0.1,0.2,0.1,0.3     c0,0,0,0.1,0,0.1c0,0.1,0.1,0.2,0.1,0.3c0,0,0,0.1,0.1,0.1c0.1,0.1,0.1,0.2,0.2,0.3c0,0,0,0,0,0c0.1,0.2,0.3,0.5,0.5,0.7     c0,0,0,0,0,0c0.1,0.1,0.2,0.2,0.3,0.2c0,0,0.1,0.1,0.1,0.1c0.1,0.1,0.2,0.1,0.3,0.2c0,0,0.1,0.1,0.1,0.1c0.1,0.1,0.2,0.1,0.3,0.2     c0.1,0,0.1,0.1,0.2,0.1c0.1,0,0.1,0.1,0.2,0.1c0,0,0,0,0,0c0,0,0.1,0,0.1,0c0.1,0,0.2,0.1,0.3,0.1c0.1,0,0.1,0,0.2,0     c0.1,0,0.2,0,0.2,0c0.1,0,0.2,0,0.3,0c0.1,0,0.1,0,0.2,0c0,0,0,0,0,0c0.1,0,0.2,0,0.2,0c0.1,0,0.1,0,0.2,0c0.1,0,0.2-0.1,0.3-0.1     c0,0,0.1,0,0.1,0c0.1,0,0.2-0.1,0.3-0.1c0,0,0.1,0,0.1-0.1c0.1-0.1,0.2-0.1,0.3-0.2c0,0,0,0,0,0c0.2-0.1,0.5-0.3,0.7-0.5     c0,0,0,0,0,0c0.1-0.1,0.2-0.2,0.2-0.3c0,0,0.1-0.1,0.1-0.1c0.1-0.1,0.1-0.2,0.2-0.3c0,0,0.1-0.1,0.1-0.1c0.1-0.1,0.1-0.2,0.2-0.3     c0-0.1,0.1-0.1,0.1-0.2c0-0.1,0.1-0.1,0.1-0.2c0,0,0,0,0,0c0,0,0-0.1,0-0.1c0-0.1,0.1-0.2,0.1-0.3c0-0.1,0-0.2,0-0.2     c0-0.1,0-0.2,0-0.2c0-0.1,0-0.2,0-0.3c0-0.1,0-0.1,0-0.2c0,0,0,0,0,0c0-0.1,0-0.1,0-0.2c0-0.1,0-0.1,0-0.2c0-0.1-0.1-0.2-0.1-0.3     c0,0,0-0.1,0-0.1c0-0.1-0.1-0.2-0.1-0.3c0,0,0-0.1-0.1-0.1c-0.1-0.1-0.1-0.2-0.2-0.3c0,0,0,0,0,0c-0.1-0.2-0.3-0.5-0.5-0.7     c0,0,0,0,0,0c-0.1-0.1-0.2-0.2-0.3-0.2c0,0-0.1-0.1-0.1-0.1c-0.1-0.1-0.2-0.1-0.3-0.2c0,0-0.1-0.1-0.1-0.1     c-0.1-0.1-0.2-0.1-0.3-0.2c-0.1,0-0.1-0.1-0.2-0.1c-0.1,0-0.1-0.1-0.2-0.1c0,0,0,0,0,0c0,0-0.1,0-0.1,0c-0.1,0-0.2-0.1-0.3-0.1     c-0.1,0-0.2,0-0.2,0c-0.1,0-0.2,0-0.2,0c-0.1,0-0.2,0-0.3,0c-0.1,0-0.1,0-0.2,0c0,0,0,0,0,0c-0.1,0-0.1,0-0.2,0     c-0.1,0-0.1,0-0.2,0c-0.1,0-0.2,0.1-0.3,0.1c0,0-0.1,0-0.1,0c-0.1,0-0.2,0.1-0.3,0.1c0,0-0.1,0-0.1,0.1c-0.1,0.1-0.2,0.1-0.3,0.2     c0,0,0,0,0,0c-0.2,0.1-0.5,0.3-0.7,0.5c0,0,0,0,0,0c-0.1,0.1-0.2,0.2-0.2,0.3c0,0-0.1,0.1-0.1,0.1c-0.1,0.1-0.1,0.2-0.2,0.3     c0,0-0.1,0.1-0.1,0.1c-0.1,0.1-0.1,0.2-0.2,0.3c0,0.1-0.1,0.1-0.1,0.2c0,0.1-0.1,0.1-0.1,0.2c0,0,0,0,0,0c0,0,0,0.1,0,0.2     c0,0.1-0.1,0.2-0.1,0.3c0,0.1,0,0.2,0,0.2C33.9,23,33.9,23,33.9,23.1z"/><path d="M46.3,15.8l-31-3.5c-0.4,0-0.8,0.3-0.8,0.7l-2.5,21.9l-0.3,2.7c0,0.4,0.3,0.8,0.7,0.8l8.5,1l19.2,2.2l3.4,0.4     c0.4,0,0.8-0.3,0.8-0.7l0.1-1.1L47,16.6C47,16.2,46.7,15.8,46.3,15.8z M43,38.4l-0.1,1l-7.7-9.6c-0.3-0.3-0.8-0.4-1.1-0.1     L32,31.3c-0.3,0.3-0.9,0.2-1.1-0.1l-4.6-5.8c-0.3-0.3-0.8-0.4-1.1-0.1l-11.6,9.2l0.1-1l2.2-19.7l29.5,3.4L43,38.4z"/><path d="M7.8,37L2.5,14.3l28.9-6.7l1.2,5.1l1.6,0.2l-1.3-5.6c-0.2-0.8-1-1.3-1.8-1.1L2.2,12.9c-0.8,0.2-1.3,1-1.1,1.8l5.2,22.7     c0.2,0.8,1,1.3,1.8,1.1l1.9-0.5l0.2-1.6L7.8,37z"/></g></svg>