<svg xmlns="http://www.w3.org/2000/svg" xmlns:xlink="http://www.w3.org/1999/xlink" version="1.1" width='25' height='auto' viewBox="0 0 48 60" enable-background="new 0 0 48 48" xml:space="preserve"><g><g><path d="M43.0517578,23.0668945L24.6625977,6.8066406c-0.3789063-0.3349609-0.9462891-0.3349609-1.3251953,0l-18.5,16.3583984    c-0.3110352,0.2753906-0.4199219,0.7143555-0.2724609,1.1030273C4.7119141,24.6567383,5.0844727,24.9140625,5.5,24.9140625    h4.1386719v15.5302734c0,0.5522461,0.4477539,1,1,1H20V28c0-0.5522461,0.4477539-1,1-1h6c0.5522461,0,1,0.4477539,1,1v13.4443359    h9.3613281c0.5522461,0,1-0.4477539,1-1V24.9140625H42.5c0.0063477,0,0.0131836-0.0004883,0.0200195,0    c0.5522461,0,1-0.4477539,1-1C43.5200195,23.5571289,43.3330078,23.2436523,43.0517578,23.0668945z"/></g></g></svg>