<svg xmlns="http://www.w3.org/2000/svg" data-name="Layer 1" viewBox="0 0 100 125" width='25' fill='#efefef'><path d="M25.87848,48.02594A24.202,24.202,0,1,0,48.02612,25.8772,24.22583,24.22583,0,0,0,25.87848,48.02594Z"/><rect x="47" y="82.19971" width="6" height="12.80029" rx="0.88385" ry="0.88385"/><rect x="47" y="5" width="6" height="12.7998" rx="0.88385" ry="0.88385"/><path d="M17.18985,74.29449H28.22221a.88388.88388,0,0,1,.88388.88388v4.23168a.88384.88384,0,0,1-.88384.88384H17.1899A.88388.88388,0,0,1,16.306,79.41V75.17833a.88384.88384,0,0,1,.88384-.88384Z" transform="translate(-48.0048 38.69455) rotate(-45)"/><path d="M71.77806,19.70556H82.81083a.88382.88382,0,0,1,.88382.88382v4.23237a.88382.88382,0,0,1-.88382.88382H71.778a.88382.88382,0,0,1-.88382-.88382V20.5894a.88384.88384,0,0,1,.88384-.88384Z" transform="translate(6.57903 61.29707) rotate(-44.99299)"/><rect x="5" y="47" width="12.7998" height="6" rx="0.88385" ry="0.88385"/><rect x="82.2002" y="47" width="12.7998" height="6" rx="0.88385" ry="0.88385"/><path d="M75.17828,70.89382h4.23233a.88385.88385,0,0,1,.88385.88385v11.033a.88387.88387,0,0,1-.88387.88387H75.17826a.88385.88385,0,0,1-.88385-.88385v-11.033a.88387.88387,0,0,1,.88387-.88387Z" transform="translate(-32.01623 77.30662) rotate(-45.00643)"/><rect x="19.70638" y="16.3057" width="5.99936" height="12.79974" rx="0.88388" ry="0.88388" transform="translate(-9.40481 22.70591) rotate(-45)"/></svg>